<svg width="120" height="19" viewBox="0 0 120 19" fill="none" xmlns="http://www.w3.org/2000/svg">
<path d="M0.112 18V1.2H7.672C8.744 1.2 9.712 1.432 10.576 1.896C11.456 2.36 12.144 3 12.64 3.816C13.136 4.616 13.384 5.528 13.384 6.552C13.384 7.608 13.136 8.56 12.64 9.408C12.144 10.24 11.464 10.896 10.6 11.376C9.736 11.856 8.76 12.096 7.672 12.096H4V18H0.112ZM9.424 18L5.152 10.416L9.328 9.816L14.08 18H9.424ZM4 8.976H7.312C7.728 8.976 8.088 8.888 8.392 8.712C8.712 8.52 8.952 8.256 9.112 7.92C9.288 7.584 9.376 7.2 9.376 6.768C9.376 6.336 9.28 5.96 9.088 5.64C8.896 5.304 8.616 5.048 8.248 4.872C7.896 4.696 7.464 4.608 6.952 4.608H4V8.976ZM24.3852 18.24C23.1052 18.24 21.9372 18.024 20.8812 17.592C19.8252 17.16 18.9052 16.552 18.1212 15.768C17.3372 14.984 16.7292 14.064 16.2972 13.008C15.8652 11.952 15.6492 10.792 15.6492 9.528C15.6492 8.264 15.8652 7.104 16.2972 6.048C16.7292 4.992 17.3372 4.072 18.1212 3.288C18.9052 2.504 19.8252 1.896 20.8812 1.464C21.9372 1.032 23.0972 0.816 24.3612 0.816C25.6252 0.816 26.7852 1.032 27.8412 1.464C28.8972 1.896 29.8172 2.504 30.6012 3.288C31.3852 4.072 31.9852 4.992 32.4012 6.048C32.8332 7.104 33.0492 8.264 33.0492 9.528C33.0492 10.776 32.8332 11.936 32.4012 13.008C31.9852 14.064 31.3852 14.984 30.6012 15.768C29.8172 16.552 28.8972 17.16 27.8412 17.592C26.7852 18.024 25.6332 18.24 24.3852 18.24ZM24.3612 14.4C25.0172 14.4 25.6172 14.28 26.1612 14.04C26.7212 13.8 27.2012 13.464 27.6012 13.032C28.0172 12.584 28.3372 12.064 28.5612 11.472C28.7852 10.88 28.8972 10.232 28.8972 9.528C28.8972 8.824 28.7852 8.176 28.5612 7.584C28.3372 6.992 28.0172 6.48 27.6012 6.048C27.2012 5.6 26.7212 5.256 26.1612 5.016C25.6172 4.776 25.0172 4.656 24.3612 4.656C23.7052 4.656 23.0972 4.776 22.5372 5.016C21.9932 5.256 21.5132 5.6 21.0972 6.048C20.6812 6.48 20.3612 6.992 20.1372 7.584C19.9292 8.176 19.8252 8.824 19.8252 9.528C19.8252 10.232 19.9292 10.888 20.1372 11.496C20.3612 12.088 20.6812 12.6 21.0972 13.032C21.5132 13.464 21.9932 13.8 22.5372 14.04C23.0972 14.28 23.7052 14.4 24.3612 14.4ZM43.8618 18.24C42.5818 18.24 41.4138 18.024 40.3578 17.592C39.3018 17.16 38.3818 16.552 37.5978 15.768C36.8138 14.984 36.2058 14.064 35.7738 13.008C35.3418 11.952 35.1258 10.792 35.1258 9.528C35.1258 8.264 35.3418 7.104 35.7738 6.048C36.2058 4.992 36.8138 4.072 37.5978 3.288C38.3818 2.504 39.3018 1.896 40.3578 1.464C41.4138 1.032 42.5738 0.816 43.8378 0.816C45.1018 0.816 46.2618 1.032 47.3177 1.464C48.3738 1.896 49.2938 2.504 50.0778 3.288C50.8618 4.072 51.4618 4.992 51.8778 6.048C52.3098 7.104 52.5258 8.264 52.5258 9.528C52.5258 10.776 52.3098 11.936 51.8778 13.008C51.4618 14.064 50.8618 14.984 50.0778 15.768C49.2938 16.552 48.3738 17.16 47.3177 17.592C46.2618 18.024 45.1098 18.24 43.8618 18.24ZM43.8378 14.4C44.4938 14.4 45.0938 14.28 45.6378 14.04C46.1978 13.8 46.6778 13.464 47.0778 13.032C47.4938 12.584 47.8138 12.064 48.0378 11.472C48.2618 10.88 48.3738 10.232 48.3738 9.528C48.3738 8.824 48.2618 8.176 48.0378 7.584C47.8138 6.992 47.4938 6.48 47.0778 6.048C46.6778 5.6 46.1978 5.256 45.6378 5.016C45.0938 4.776 44.4938 4.656 43.8378 4.656C43.1818 4.656 42.5738 4.776 42.0138 5.016C41.4698 5.256 40.9898 5.6 40.5738 6.048C40.1578 6.48 39.8378 6.992 39.6138 7.584C39.4058 8.176 39.3018 8.824 39.3018 9.528C39.3018 10.232 39.4058 10.888 39.6138 11.496C39.8378 12.088 40.1578 12.6 40.5738 13.032C40.9898 13.464 41.4698 13.8 42.0138 14.04C42.5738 14.28 43.1818 14.4 43.8378 14.4ZM55.6823 18V1.2H59.3303L65.4503 11.16L62.8343 11.136L69.0263 1.2H72.5303V18H68.5703V12.768C68.5703 11.328 68.6023 10.032 68.6663 8.88C68.7463 7.728 68.8743 6.584 69.0503 5.448L69.5063 6.696L64.8503 13.92H63.2663L58.7063 6.744L59.1623 5.448C59.3383 6.52 59.4583 7.624 59.5223 8.76C59.6023 9.88 59.6423 11.216 59.6423 12.768V18H55.6823ZM76.7526 18V1.2H80.8326V14.4H88.3206V18H76.7526ZM91.3776 18V1.2H103.09V4.68H95.3376V14.52H103.33V18H91.3776ZM93.2976 11.112V7.8H102.01V11.112H93.2976ZM110.494 18V4.8H105.502V1.2H119.686V4.8H114.574V18H110.494Z" fill="#242C33"/>
</svg>
